# xmcd CD database file
#
# Track frame offsets:
#	150
#	26391
#	69688
#	84644
#	106934
#	130500
#	143115
#	153285
#	194635
#	224775
#
# Disc length: 3364 seconds
#
# Revision: 0
# Processed by: cddbd v1.4PL0 Copyright (c) Steve Scherf et al.
# Submitted via: CDex 1.50Beta7
#
DISCID=8e0d220a
DTITLE=Robert Haig Coxon - The Silent Path
DYEAR=1995
DGENRE=New Age
TTITLE0=Towards the Light
TTITLE1=The Silent Path, Sections 1-4
TTITLE2=Section 5
TTITLE3=Angelic Love, Section 1
TTITLE4=Sections 2-4
TTITLE5=Finding Peace
TTITLE6=Gabriel, Section 1
TTITLE7=Sections 2-5
TTITLE8=Infinity
TTITLE9=The Light
EXTD=YEAR: 1995
EXTT0=
EXTT1=
EXTT2=
EXTT3=
EXTT4=
EXTT5=
EXTT6=
EXTT7=
EXTT8=
EXTT9=
PLAYORDER=
